<svg xmlns="http://www.w3.org/2000/svg" width="440" height="120" viewBox="0 0 440 120" role="img" aria-label="소리노트 파형의 페이지"><title>소리노트 — 파형의 페이지</title><g id="symbol" color="#5C5547"><g id="wave-to-page" fill="currentColor"><rect x="14" y="43" width="12" height="32" rx="6"/><rect x="34" y="25" width="12" height="68" rx="6"/><path d="M60 15h26a14 14 0 0 1 14 14v62a14 14 0 0 1-14 14H60a6 6 0 0 1-6-6V21a6 6 0 0 1 6-6Zm6 12v66h20a2 2 0 0 0 2-2V29a2 2 0 0 0-2-2Z"/></g></g><g id="wordmark"><text x="148" y="77" fill="#5C5547" font-family="Malgun Gothic, sans-serif" font-size="52" font-weight="700" letter-spacing="-2">소리노트</text></g></svg>