<svg xmlns="http://www.w3.org/2000/svg" width="1600" height="1080" viewBox="0 0 1600 1080"><title>LOXT — three logo concepts</title><rect width="1600" height="1080" fill="#F5F4F0"/><text x="56" y="50" font-family="Malgun Gothic, sans-serif" font-weight="700" font-size="15" fill="#5C5547">LOXT / BRAND EXPLORATIONS</text><text x="56" y="105" font-family="Malgun Gothic, sans-serif" font-weight="700" font-size="34" fill="#292A2A">소리를 기록으로, 내 PC 안에서.</text><text x="1170" y="101" font-family="Malgun Gothic, sans-serif" font-weight="400" font-size="14" fill="#77776E">VECTOR CONCEPTS 01—03</text><g id="concept-1-presentation"><rect id="dark-background" x="56" y="155" width="480" height="412" rx="18" fill="#1E1E1E"/><text x="81" y="189" font-family="Malgun Gothic, sans-serif" font-weight="400" font-size="12" fill="#A5A5A3">01 / DARK</text><g id="concept-1-symbol"><rect id="wave-short" x="236.6" y="278.84000000000003" width="15.84" height="34.32" rx="7.92" fill="#D9D1BD"/><rect id="wave-long" x="264.32" y="252.44" width="15.84" height="87.12" rx="7.92" fill="#D9D1BD"/><path id="wave-turn" d="M299.96000000000004 268.28L299.96000000000004 289.4" stroke="#D9D1BD" stroke-width="15.84" stroke-linecap="round" fill="none"/><path id="text-first" d="M299.96000000000004 289.4L347.48 289.4" stroke="#D9D1BD" stroke-width="15.84" stroke-linecap="round" fill="none"/><path id="text-second" d="M299.96000000000004 314.48L347.48 314.48" stroke="#D9D1BD" stroke-width="15.84" stroke-linecap="round" fill="none"/><path id="text-third" d="M299.96000000000004 339.56L330.32 339.56" stroke="#D9D1BD" stroke-width="15.84" stroke-linecap="round" fill="none"/></g><g id="concept-1-symbol"><rect id="wave-short" x="137.4" y="440.76" width="5.76" height="12.48" rx="2.88" fill="#D9D1BD"/><rect id="wave-long" x="147.48" y="431.16" width="5.76" height="31.68" rx="2.88" fill="#D9D1BD"/><path id="wave-turn" d="M160.44 436.92L160.44 444.6" stroke="#D9D1BD" stroke-width="5.76" stroke-linecap="round" fill="none"/><path id="text-first" d="M160.44 444.6L177.72 444.6" stroke="#D9D1BD" stroke-width="5.76" stroke-linecap="round" fill="none"/><path id="text-second" d="M160.44 453.72L177.72 453.72" stroke="#D9D1BD" stroke-width="5.76" stroke-linecap="round" fill="none"/><path id="text-third" d="M160.44 462.84L171.48 462.84" stroke="#D9D1BD" stroke-width="5.76" stroke-linecap="round" fill="none"/></g><g id="LOXT-custom-wordmark"><path id="L-stem" d="M204.35 426.35L204.35 468.65" stroke="#D9D1BD" stroke-width="5.2875000000000005" stroke-linecap="round" fill="none"/><path id="L-foot" d="M204.35 468.65L227.85 468.65" stroke="#D9D1BD" stroke-width="5.2875000000000005" stroke-linecap="round" fill="none"/><path id="O-top" d="M241.95 426.35L262.5125 426.35" stroke="#D9D1BD" stroke-width="5.2875000000000005" stroke-linecap="round" fill="none"/><path id="O-bottom" d="M241.95 468.65L262.5125 468.65" stroke="#D9D1BD" stroke-width="5.2875000000000005" stroke-linecap="round" fill="none"/><path id="O-left" d="M237.25 431.6375L237.25 463.3625" stroke="#D9D1BD" stroke-width="5.2875000000000005" stroke-linecap="round" fill="none"/><path id="O-right" d="M267.2125 431.6375L267.2125 463.3625" stroke="#D9D1BD" stroke-width="5.2875000000000005" stroke-linecap="round" fill="none"/><path id="X-down" d="M281.9 426.35L308.3375 468.65" stroke="#D9D1BD" stroke-width="5.2875000000000005" stroke-linecap="round" fill="none"/><path id="X-up" d="M281.9 468.65L308.3375 426.35" stroke="#D9D1BD" stroke-width="5.2875000000000005" stroke-linecap="round" fill="none"/><path id="T-top" d="M321.2625 426.35L351.8125 426.35" stroke="#D9D1BD" stroke-width="5.2875000000000005" stroke-linecap="round" fill="none"/><path id="T-stem" d="M336.5375 426.35L336.5375 468.65" stroke="#D9D1BD" stroke-width="5.2875000000000005" stroke-linecap="round" fill="none"/></g><rect id="light-background" x="56" y="587" width="480" height="213" rx="14" fill="#FDFDFC"/><text x="81" y="621" font-family="Malgun Gothic, sans-serif" font-weight="400" font-size="12" fill="#87877F">LIGHT / ONE COLOR</text><g id="concept-1-symbol"><rect id="wave-short" x="124.5" y="689.9" width="8.399999999999999" height="18.2" rx="4.199999999999999" fill="#5C5547"/><rect id="wave-long" x="139.2" y="675.9" width="8.399999999999999" height="46.199999999999996" rx="4.199999999999999" fill="#5C5547"/><path id="wave-turn" d="M158.1 684.3L158.1 695.5" stroke="#5C5547" stroke-width="8.399999999999999" stroke-linecap="round" fill="none"/><path id="text-first" d="M158.1 695.5L183.3 695.5" stroke="#5C5547" stroke-width="8.399999999999999" stroke-linecap="round" fill="none"/><path id="text-second" d="M158.1 708.8L183.3 708.8" stroke="#5C5547" stroke-width="8.399999999999999" stroke-linecap="round" fill="none"/><path id="text-third" d="M158.1 722.1L174.2 722.1" stroke="#5C5547" stroke-width="8.399999999999999" stroke-linecap="round" fill="none"/></g><g id="LOXT-custom-wordmark"><path id="L-stem" d="M218.75 673.75L218.75 723.25" stroke="#5C5547" stroke-width="6.1875" stroke-linecap="round" fill="none"/><path id="L-foot" d="M218.75 723.25L246.25 723.25" stroke="#5C5547" stroke-width="6.1875" stroke-linecap="round" fill="none"/><path id="O-top" d="M262.75 673.75L286.8125 673.75" stroke="#5C5547" stroke-width="6.1875" stroke-linecap="round" fill="none"/><path id="O-bottom" d="M262.75 723.25L286.8125 723.25" stroke="#5C5547" stroke-width="6.1875" stroke-linecap="round" fill="none"/><path id="O-left" d="M257.25 679.9375L257.25 717.0625" stroke="#5C5547" stroke-width="6.1875" stroke-linecap="round" fill="none"/><path id="O-right" d="M292.3125 679.9375L292.3125 717.0625" stroke="#5C5547" stroke-width="6.1875" stroke-linecap="round" fill="none"/><path id="X-down" d="M309.5 673.75L340.4375 723.25" stroke="#5C5547" stroke-width="6.1875" stroke-linecap="round" fill="none"/><path id="X-up" d="M309.5 723.25L340.4375 673.75" stroke="#5C5547" stroke-width="6.1875" stroke-linecap="round" fill="none"/><path id="T-top" d="M355.5625 673.75L391.3125 673.75" stroke="#5C5547" stroke-width="6.1875" stroke-linecap="round" fill="none"/><path id="T-stem" d="M373.4375 673.75L373.4375 723.25" stroke="#5C5547" stroke-width="6.1875" stroke-linecap="round" fill="none"/></g><text x="56" y="847" font-family="Malgun Gothic, sans-serif" font-weight="700" font-size="23" fill="#292A2A">소리 → 글줄</text><text x="56" y="880" font-family="Malgun Gothic, sans-serif" font-weight="400" font-size="14" fill="#74746D">세로 파형이 가로 글줄로 전환됩니다.</text><text x="56" y="905" font-family="Malgun Gothic, sans-serif" font-weight="400" font-size="14" fill="#74746D">음성 전사 기능을 가장 직접적으로 표현합니다.</text><text x="56" y="958" font-family="Malgun Gothic, sans-serif" font-weight="400" font-size="11" fill="#87877F">16 px        24 px        APP TILE</text><g id="concept-1-symbol"><rect id="wave-short" x="60.8" y="983.92" width="1.92" height="4.16" rx="0.96" fill="#5C5547"/><rect id="wave-long" x="64.16" y="980.72" width="1.92" height="10.56" rx="0.96" fill="#5C5547"/><path id="wave-turn" d="M68.48 982.64L68.48 985.2" stroke="#5C5547" stroke-width="1.92" stroke-linecap="round" fill="none"/><path id="text-first" d="M68.48 985.2L74.24 985.2" stroke="#5C5547" stroke-width="1.92" stroke-linecap="round" fill="none"/><path id="text-second" d="M68.48 988.24L74.24 988.24" stroke="#5C5547" stroke-width="1.92" stroke-linecap="round" fill="none"/><path id="text-third" d="M68.48 991.28L72.16 991.28" stroke="#5C5547" stroke-width="1.92" stroke-linecap="round" fill="none"/></g><g id="concept-1-symbol"><rect id="wave-short" x="142.2" y="982.88" width="2.88" height="6.24" rx="1.44" fill="#5C5547"/><rect id="wave-long" x="147.24" y="978.08" width="2.88" height="15.84" rx="1.44" fill="#5C5547"/><path id="wave-turn" d="M153.72 980.96L153.72 984.8" stroke="#5C5547" stroke-width="2.88" stroke-linecap="round" fill="none"/><path id="text-first" d="M153.72 984.8L162.36 984.8" stroke="#5C5547" stroke-width="2.88" stroke-linecap="round" fill="none"/><path id="text-second" d="M153.72 989.36L162.36 989.36" stroke="#5C5547" stroke-width="2.88" stroke-linecap="round" fill="none"/><path id="text-third" d="M153.72 993.92L159.24 993.92" stroke="#5C5547" stroke-width="2.88" stroke-linecap="round" fill="none"/></g><rect id="app-tile" x="237" y="960" width="56" height="56" rx="12" fill="#D9D1BD"/><g id="concept-1-symbol"><rect id="wave-short" x="247.0" y="982.8" width="4.800000000000001" height="10.4" rx="2.4000000000000004" fill="#5C5547"/><rect id="wave-long" x="255.4" y="974.8" width="4.800000000000001" height="26.400000000000002" rx="2.4000000000000004" fill="#5C5547"/><path id="wave-turn" d="M266.2 979.6L266.2 986.0" stroke="#5C5547" stroke-width="4.800000000000001" stroke-linecap="round" fill="none"/><path id="text-first" d="M266.2 986.0L280.6 986.0" stroke="#5C5547" stroke-width="4.800000000000001" stroke-linecap="round" fill="none"/><path id="text-second" d="M266.2 993.6L280.6 993.6" stroke="#5C5547" stroke-width="4.800000000000001" stroke-linecap="round" fill="none"/><path id="text-third" d="M266.2 1001.2L275.4 1001.2" stroke="#5C5547" stroke-width="4.800000000000001" stroke-linecap="round" fill="none"/></g></g><g id="concept-2-presentation"><rect id="dark-background" x="560" y="155" width="480" height="412" rx="18" fill="#1E1E1E"/><text x="585" y="189" font-family="Malgun Gothic, sans-serif" font-weight="400" font-size="12" fill="#A5A5A3">02 / DARK</text><g id="concept-2-symbol"><path id="L-vertical" d="M757.76 252.44L757.76 335.6" stroke="#D9D1BD" stroke-width="18.48" stroke-linecap="round" fill="none"/><path id="L-base" d="M757.76 335.6L840.92 335.6" stroke="#D9D1BD" stroke-width="18.48" stroke-linecap="round" fill="none"/><path id="X-descending" d="M785.48 256.4L840.92 311.84000000000003" stroke="#D9D1BD" stroke-width="18.48" stroke-linecap="round" fill="none"/><path id="X-ascending" d="M785.48 311.84000000000003L840.92 256.4" stroke="#D9D1BD" stroke-width="18.48" stroke-linecap="round" fill="none"/></g><g id="concept-2-symbol"><path id="L-vertical" d="M647.64 431.16L647.64 461.4" stroke="#D9D1BD" stroke-width="6.72" stroke-linecap="round" fill="none"/><path id="L-base" d="M647.64 461.4L677.88 461.4" stroke="#D9D1BD" stroke-width="6.72" stroke-linecap="round" fill="none"/><path id="X-descending" d="M657.72 432.6L677.88 452.76" stroke="#D9D1BD" stroke-width="6.72" stroke-linecap="round" fill="none"/><path id="X-ascending" d="M657.72 452.76L677.88 432.6" stroke="#D9D1BD" stroke-width="6.72" stroke-linecap="round" fill="none"/></g><g id="LOXT-custom-wordmark"><path id="L-stem" d="M708.35 426.35L708.35 468.65" stroke="#D9D1BD" stroke-width="5.2875000000000005" stroke-linecap="round" fill="none"/><path id="L-foot" d="M708.35 468.65L731.85 468.65" stroke="#D9D1BD" stroke-width="5.2875000000000005" stroke-linecap="round" fill="none"/><path id="O-top" d="M745.95 426.35L766.5125 426.35" stroke="#D9D1BD" stroke-width="5.2875000000000005" stroke-linecap="round" fill="none"/><path id="O-bottom" d="M745.95 468.65L766.5125 468.65" stroke="#D9D1BD" stroke-width="5.2875000000000005" stroke-linecap="round" fill="none"/><path id="O-left" d="M741.25 431.6375L741.25 463.3625" stroke="#D9D1BD" stroke-width="5.2875000000000005" stroke-linecap="round" fill="none"/><path id="O-right" d="M771.2125 431.6375L771.2125 463.3625" stroke="#D9D1BD" stroke-width="5.2875000000000005" stroke-linecap="round" fill="none"/><path id="X-down" d="M785.9 426.35L812.3375 468.65" stroke="#D9D1BD" stroke-width="5.2875000000000005" stroke-linecap="round" fill="none"/><path id="X-up" d="M785.9 468.65L812.3375 426.35" stroke="#D9D1BD" stroke-width="5.2875000000000005" stroke-linecap="round" fill="none"/><path id="T-top" d="M825.2625 426.35L855.8125 426.35" stroke="#D9D1BD" stroke-width="5.2875000000000005" stroke-linecap="round" fill="none"/><path id="T-stem" d="M840.5375 426.35L840.5375 468.65" stroke="#D9D1BD" stroke-width="5.2875000000000005" stroke-linecap="round" fill="none"/></g><rect id="light-background" x="560" y="587" width="480" height="213" rx="14" fill="#FDFDFC"/><text x="585" y="621" font-family="Malgun Gothic, sans-serif" font-weight="400" font-size="12" fill="#87877F">LIGHT / ONE COLOR</text><g id="concept-2-symbol"><path id="L-vertical" d="M637.6 675.9L637.6 720.0" stroke="#5C5547" stroke-width="9.799999999999999" stroke-linecap="round" fill="none"/><path id="L-base" d="M637.6 720.0L681.7 720.0" stroke="#5C5547" stroke-width="9.799999999999999" stroke-linecap="round" fill="none"/><path id="X-descending" d="M652.3 678.0L681.7 707.4" stroke="#5C5547" stroke-width="9.799999999999999" stroke-linecap="round" fill="none"/><path id="X-ascending" d="M652.3 707.4L681.7 678.0" stroke="#5C5547" stroke-width="9.799999999999999" stroke-linecap="round" fill="none"/></g><g id="LOXT-custom-wordmark"><path id="L-stem" d="M722.75 673.75L722.75 723.25" stroke="#5C5547" stroke-width="6.1875" stroke-linecap="round" fill="none"/><path id="L-foot" d="M722.75 723.25L750.25 723.25" stroke="#5C5547" stroke-width="6.1875" stroke-linecap="round" fill="none"/><path id="O-top" d="M766.75 673.75L790.8125 673.75" stroke="#5C5547" stroke-width="6.1875" stroke-linecap="round" fill="none"/><path id="O-bottom" d="M766.75 723.25L790.8125 723.25" stroke="#5C5547" stroke-width="6.1875" stroke-linecap="round" fill="none"/><path id="O-left" d="M761.25 679.9375L761.25 717.0625" stroke="#5C5547" stroke-width="6.1875" stroke-linecap="round" fill="none"/><path id="O-right" d="M796.3125 679.9375L796.3125 717.0625" stroke="#5C5547" stroke-width="6.1875" stroke-linecap="round" fill="none"/><path id="X-down" d="M813.5 673.75L844.4375 723.25" stroke="#5C5547" stroke-width="6.1875" stroke-linecap="round" fill="none"/><path id="X-up" d="M813.5 723.25L844.4375 673.75" stroke="#5C5547" stroke-width="6.1875" stroke-linecap="round" fill="none"/><path id="T-top" d="M859.5625 673.75L895.3125 673.75" stroke="#5C5547" stroke-width="6.1875" stroke-linecap="round" fill="none"/><path id="T-stem" d="M877.4375 673.75L877.4375 723.25" stroke="#5C5547" stroke-width="6.1875" stroke-linecap="round" fill="none"/></g><text x="560" y="847" font-family="Malgun Gothic, sans-serif" font-weight="700" font-size="23" fill="#292A2A">LX 모노그램</text><text x="560" y="880" font-family="Malgun Gothic, sans-serif" font-weight="400" font-size="14" fill="#74746D">L의 받침 안에 X를 단단하게 결합했습니다.</text><text x="560" y="905" font-family="Malgun Gothic, sans-serif" font-weight="400" font-size="14" fill="#74746D">로컬 작업 공간과 LOXT의 이니셜을 담았습니다.</text><text x="560" y="958" font-family="Malgun Gothic, sans-serif" font-weight="400" font-size="11" fill="#87877F">16 px        24 px        APP TILE</text><g id="concept-2-symbol"><path id="L-vertical" d="M566.88 980.72L566.88 990.8" stroke="#5C5547" stroke-width="2.24" stroke-linecap="round" fill="none"/><path id="L-base" d="M566.88 990.8L576.96 990.8" stroke="#5C5547" stroke-width="2.24" stroke-linecap="round" fill="none"/><path id="X-descending" d="M570.24 981.2L576.96 987.92" stroke="#5C5547" stroke-width="2.24" stroke-linecap="round" fill="none"/><path id="X-ascending" d="M570.24 987.92L576.96 981.2" stroke="#5C5547" stroke-width="2.24" stroke-linecap="round" fill="none"/></g><g id="concept-2-symbol"><path id="L-vertical" d="M649.32 978.08L649.32 993.2" stroke="#5C5547" stroke-width="3.36" stroke-linecap="round" fill="none"/><path id="L-base" d="M649.32 993.2L664.44 993.2" stroke="#5C5547" stroke-width="3.36" stroke-linecap="round" fill="none"/><path id="X-descending" d="M654.36 978.8L664.44 988.88" stroke="#5C5547" stroke-width="3.36" stroke-linecap="round" fill="none"/><path id="X-ascending" d="M654.36 988.88L664.44 978.8" stroke="#5C5547" stroke-width="3.36" stroke-linecap="round" fill="none"/></g><rect id="app-tile" x="741" y="960" width="56" height="56" rx="12" fill="#D9D1BD"/><g id="concept-2-symbol"><path id="L-vertical" d="M756.2 974.8L756.2 1000.0" stroke="#5C5547" stroke-width="5.6000000000000005" stroke-linecap="round" fill="none"/><path id="L-base" d="M756.2 1000.0L781.4 1000.0" stroke="#5C5547" stroke-width="5.6000000000000005" stroke-linecap="round" fill="none"/><path id="X-descending" d="M764.6 976.0L781.4 992.8" stroke="#5C5547" stroke-width="5.6000000000000005" stroke-linecap="round" fill="none"/><path id="X-ascending" d="M764.6 992.8L781.4 976.0" stroke="#5C5547" stroke-width="5.6000000000000005" stroke-linecap="round" fill="none"/></g></g><g id="concept-3-presentation"><rect id="dark-background" x="1064" y="155" width="480" height="412" rx="18" fill="#1E1E1E"/><text x="1089" y="189" font-family="Malgun Gothic, sans-serif" font-weight="400" font-size="12" fill="#A5A5A3">03 / DARK</text><g id="LOXT-custom-wordmark"><path id="L-stem" d="M1148.8 263.8L1148.8 350.2" stroke="#D9D1BD" stroke-width="10.799999999999999" stroke-linecap="round" fill="none"/><path id="L-foot" d="M1148.8 350.2L1196.8 350.2" stroke="#D9D1BD" stroke-width="10.799999999999999" stroke-linecap="round" fill="none"/><path id="O-top" d="M1225.6 263.8L1267.6 263.8" stroke="#D9D1BD" stroke-width="10.799999999999999" stroke-linecap="round" fill="none"/><path id="O-bottom" d="M1225.6 350.2L1267.6 350.2" stroke="#D9D1BD" stroke-width="10.799999999999999" stroke-linecap="round" fill="none"/><path id="O-left" d="M1216.0 274.6L1216.0 339.4" stroke="#D9D1BD" stroke-width="10.799999999999999" stroke-linecap="round" fill="none"/><path id="O-right" d="M1277.2 274.6L1277.2 339.4" stroke="#D9D1BD" stroke-width="10.799999999999999" stroke-linecap="round" fill="none"/><path id="O-wave-short" d="M1238.8 299.8L1238.8 314.2" stroke="#D9D1BD" stroke-width="10.799999999999999" stroke-linecap="round" fill="none"/><path id="O-wave-long" d="M1255.6 289.0L1255.6 325.0" stroke="#D9D1BD" stroke-width="10.799999999999999" stroke-linecap="round" fill="none"/><path id="X-down" d="M1307.2 263.8L1361.2 350.2" stroke="#D9D1BD" stroke-width="10.799999999999999" stroke-linecap="round" fill="none"/><path id="X-up" d="M1307.2 350.2L1361.2 263.8" stroke="#D9D1BD" stroke-width="10.799999999999999" stroke-linecap="round" fill="none"/><path id="T-top" d="M1387.6 263.8L1450.0 263.8" stroke="#D9D1BD" stroke-width="10.799999999999999" stroke-linecap="round" fill="none"/><path id="T-stem" d="M1418.8 263.8L1418.8 350.2" stroke="#D9D1BD" stroke-width="10.799999999999999" stroke-linecap="round" fill="none"/></g><g id="concept-3-symbol"><path id="O-top" d="M1288.5 417.54L1319.5 417.54" stroke="#D9D1BD" stroke-width="7.4399999999999995" stroke-linecap="round" fill="none"/><path id="O-bottom" d="M1288.5 458.46L1319.5 458.46" stroke="#D9D1BD" stroke-width="7.4399999999999995" stroke-linecap="round" fill="none"/><path id="O-left" d="M1284.78 425.6L1284.78 450.4" stroke="#D9D1BD" stroke-width="7.4399999999999995" stroke-linecap="round" fill="none"/><path id="O-right" d="M1323.22 425.6L1323.22 450.4" stroke="#D9D1BD" stroke-width="7.4399999999999995" stroke-linecap="round" fill="none"/><path id="wave-short" d="M1297.8 432.42L1297.8 443.58" stroke="#D9D1BD" stroke-width="4.96" stroke-linecap="round" fill="none"/><path id="wave-long" d="M1309.58 425.6L1309.58 450.4" stroke="#D9D1BD" stroke-width="4.96" stroke-linecap="round" fill="none"/></g><rect id="light-background" x="1064" y="587" width="480" height="213" rx="14" fill="#FDFDFC"/><text x="1089" y="621" font-family="Malgun Gothic, sans-serif" font-weight="400" font-size="12" fill="#87877F">LIGHT / ONE COLOR</text><g id="concept-3-symbol"><path id="O-top" d="M1146.5 675.9L1181.5 675.9" stroke="#5C5547" stroke-width="8.399999999999999" stroke-linecap="round" fill="none"/><path id="O-bottom" d="M1146.5 722.1L1181.5 722.1" stroke="#5C5547" stroke-width="8.399999999999999" stroke-linecap="round" fill="none"/><path id="O-left" d="M1142.3 685.0L1142.3 713.0" stroke="#5C5547" stroke-width="8.399999999999999" stroke-linecap="round" fill="none"/><path id="O-right" d="M1185.7 685.0L1185.7 713.0" stroke="#5C5547" stroke-width="8.399999999999999" stroke-linecap="round" fill="none"/><path id="wave-short" d="M1157.0 692.7L1157.0 705.3" stroke="#5C5547" stroke-width="5.6" stroke-linecap="round" fill="none"/><path id="wave-long" d="M1170.3 685.0L1170.3 713.0" stroke="#5C5547" stroke-width="5.6" stroke-linecap="round" fill="none"/></g><g id="LOXT-custom-wordmark"><path id="L-stem" d="M1226.75 673.75L1226.75 723.25" stroke="#5C5547" stroke-width="6.1875" stroke-linecap="round" fill="none"/><path id="L-foot" d="M1226.75 723.25L1254.25 723.25" stroke="#5C5547" stroke-width="6.1875" stroke-linecap="round" fill="none"/><path id="O-top" d="M1270.75 673.75L1294.8125 673.75" stroke="#5C5547" stroke-width="6.1875" stroke-linecap="round" fill="none"/><path id="O-bottom" d="M1270.75 723.25L1294.8125 723.25" stroke="#5C5547" stroke-width="6.1875" stroke-linecap="round" fill="none"/><path id="O-left" d="M1265.25 679.9375L1265.25 717.0625" stroke="#5C5547" stroke-width="6.1875" stroke-linecap="round" fill="none"/><path id="O-right" d="M1300.3125 679.9375L1300.3125 717.0625" stroke="#5C5547" stroke-width="6.1875" stroke-linecap="round" fill="none"/><path id="O-wave-short" d="M1278.3125 694.375L1278.3125 702.625" stroke="#5C5547" stroke-width="6.1875" stroke-linecap="round" fill="none"/><path id="O-wave-long" d="M1287.9375 688.1875L1287.9375 708.8125" stroke="#5C5547" stroke-width="6.1875" stroke-linecap="round" fill="none"/><path id="X-down" d="M1317.5 673.75L1348.4375 723.25" stroke="#5C5547" stroke-width="6.1875" stroke-linecap="round" fill="none"/><path id="X-up" d="M1317.5 723.25L1348.4375 673.75" stroke="#5C5547" stroke-width="6.1875" stroke-linecap="round" fill="none"/><path id="T-top" d="M1363.5625 673.75L1399.3125 673.75" stroke="#5C5547" stroke-width="6.1875" stroke-linecap="round" fill="none"/><path id="T-stem" d="M1381.4375 673.75L1381.4375 723.25" stroke="#5C5547" stroke-width="6.1875" stroke-linecap="round" fill="none"/></g><text x="1064" y="847" font-family="Malgun Gothic, sans-serif" font-weight="700" font-size="23" fill="#292A2A">Pulse 워드마크</text><text x="1064" y="880" font-family="Malgun Gothic, sans-serif" font-weight="400" font-size="14" fill="#74746D">LOXT의 O 안에 작은 파형을 담았습니다.</text><text x="1064" y="905" font-family="Malgun Gothic, sans-serif" font-weight="400" font-size="14" fill="#74746D">이름 자체를 로고로 쓰고 O를 아이콘으로 분리합니다.</text><text x="1064" y="958" font-family="Malgun Gothic, sans-serif" font-weight="400" font-size="11" fill="#87877F">16 px        24 px        APP TILE</text><g id="concept-3-symbol"><path id="O-top" d="M1072.0 980.72L1080.0 980.72" stroke="#5C5547" stroke-width="1.92" stroke-linecap="round" fill="none"/><path id="O-bottom" d="M1072.0 991.28L1080.0 991.28" stroke="#5C5547" stroke-width="1.92" stroke-linecap="round" fill="none"/><path id="O-left" d="M1071.04 982.8L1071.04 989.2" stroke="#5C5547" stroke-width="1.92" stroke-linecap="round" fill="none"/><path id="O-right" d="M1080.96 982.8L1080.96 989.2" stroke="#5C5547" stroke-width="1.92" stroke-linecap="round" fill="none"/><path id="wave-short" d="M1074.4 984.56L1074.4 987.44" stroke="#5C5547" stroke-width="1.28" stroke-linecap="round" fill="none"/><path id="wave-long" d="M1077.44 982.8L1077.44 989.2" stroke="#5C5547" stroke-width="1.28" stroke-linecap="round" fill="none"/></g><g id="concept-3-symbol"><path id="O-top" d="M1155.0 978.08L1167.0 978.08" stroke="#5C5547" stroke-width="2.88" stroke-linecap="round" fill="none"/><path id="O-bottom" d="M1155.0 993.92L1167.0 993.92" stroke="#5C5547" stroke-width="2.88" stroke-linecap="round" fill="none"/><path id="O-left" d="M1153.56 981.2L1153.56 990.8" stroke="#5C5547" stroke-width="2.88" stroke-linecap="round" fill="none"/><path id="O-right" d="M1168.44 981.2L1168.44 990.8" stroke="#5C5547" stroke-width="2.88" stroke-linecap="round" fill="none"/><path id="wave-short" d="M1158.6 983.84L1158.6 988.16" stroke="#5C5547" stroke-width="1.92" stroke-linecap="round" fill="none"/><path id="wave-long" d="M1163.16 981.2L1163.16 990.8" stroke="#5C5547" stroke-width="1.92" stroke-linecap="round" fill="none"/></g><rect id="app-tile" x="1245" y="960" width="56" height="56" rx="12" fill="#D9D1BD"/><g id="concept-3-symbol"><path id="O-top" d="M1263.0 974.8L1283.0 974.8" stroke="#5C5547" stroke-width="4.800000000000001" stroke-linecap="round" fill="none"/><path id="O-bottom" d="M1263.0 1001.2L1283.0 1001.2" stroke="#5C5547" stroke-width="4.800000000000001" stroke-linecap="round" fill="none"/><path id="O-left" d="M1260.6 980.0L1260.6 996.0" stroke="#5C5547" stroke-width="4.800000000000001" stroke-linecap="round" fill="none"/><path id="O-right" d="M1285.4 980.0L1285.4 996.0" stroke="#5C5547" stroke-width="4.800000000000001" stroke-linecap="round" fill="none"/><path id="wave-short" d="M1269.0 984.4L1269.0 991.6" stroke="#5C5547" stroke-width="3.2" stroke-linecap="round" fill="none"/><path id="wave-long" d="M1276.6 980.0L1276.6 996.0" stroke="#5C5547" stroke-width="3.2" stroke-linecap="round" fill="none"/></g></g><text x="56" y="1055" font-family="Malgun Gothic, sans-serif" font-weight="400" font-size="12" fill="#74746D">#1E1E1E CHARCOAL   /   #D9D1BD SAND   /   #5C5547 INK</text><text x="1110" y="1055" font-family="Malgun Gothic, sans-serif" font-weight="400" font-size="12" fill="#74746D">LOXT lettering: custom vector geometry</text></svg>